<svg xmlns="http://www.w3.org/2000/svg" version="1.1" xmlns:xlink="http://www.w3.org/1999/xlink" xmlns:svgjs="http://svgjs.dev/svgjs" width="1440" height="560" preserveAspectRatio="none" viewBox="0 0 1440 560"><g mask="url(&quot;#SvgjsMask1301&quot;)" fill="none"><rect width="1440" height="560" x="0" y="0" fill="url(&quot;#SvgjsLinearGradient1302&quot;)"></rect><path d="M940.3808528578492 455.3827648791421L821.8872331606681 489.3602635691677 855.8647318506937 607.8538832663488 974.3583515478748 573.8763845763232z" fill="rgba(136, 2, 255, 0.4)" class="triangle-float3"></path><path d="M758.4141823578473-2.960658685947891L642.1199080048697-87.45339476690924 673.921446276886 113.33361566702973z" fill="rgba(136, 2, 255, 0.4)" class="triangle-float2"></path><path d="M1092.5712960220405 59.97120806083238L1002.6037655842041 59.97120806083239 1047.5875308031223 194.92250371758684z" fill="rgba(136, 2, 255, 0.4)" class="triangle-float1"></path><path d="M60.83116164587567 288.6144456921065L105.29495546570769 467.67579422582594 223.2487149877722 357.682134004847z" fill="rgba(136, 2, 255, 0.4)" class="triangle-float3"></path><path d="M1105.308529722598 267.79659730327313L1045.7847634886366 414.7197970448148 1183.325788579138 397.83188267294213z" fill="rgba(136, 2, 255, 0.4)" class="triangle-float1"></path><path d="M99.5 552.8 a149.06 149.06 0 1 0 298.12 0 a149.06 149.06 0 1 0 -298.12 0z" fill="rgba(136, 2, 255, 0.4)" class="triangle-float1"></path><path d="M623.356,463.36C653.713,465.685,686.203,456,701.682,429.782C717.361,403.226,710.593,369.765,693.938,343.81C678.643,319.974,651.67,307.099,623.356,307.721C596.142,308.319,570.844,322.825,557.946,346.796C545.657,369.636,550.688,396.57,563.38,419.188C576.403,442.396,596.822,461.327,623.356,463.36" fill="rgba(136, 2, 255, 0.4)" class="triangle-float3"></path></g><defs><mask id="SvgjsMask1301"><rect width="1440" height="560" fill="#ffffff"></rect></mask><linearGradient x1="15.28%" y1="-39.29%" x2="84.72%" y2="139.29%" gradientUnits="userSpaceOnUse" id="SvgjsLinearGradient1302"><stop stop-color="#0e2a47" offset="0"></stop><stop stop-color="rgba(81, 0, 158, 1)" offset="1"></stop></linearGradient><style>
                @keyframes float1 {
                    0%{transform: translate(0, 0)}
                    50%{transform: translate(-10px, 0)}
                    100%{transform: translate(0, 0)}
                }

                .triangle-float1 {
                    animation: float1 5s infinite;
                }

                @keyframes float2 {
                    0%{transform: translate(0, 0)}
                    50%{transform: translate(-5px, -5px)}
                    100%{transform: translate(0, 0)}
                }

                .triangle-float2 {
                    animation: float2 4s infinite;
                }

                @keyframes float3 {
                    0%{transform: translate(0, 0)}
                    50%{transform: translate(0, -10px)}
                    100%{transform: translate(0, 0)}
                }

                .triangle-float3 {
                    animation: float3 6s infinite;
                }
            </style></defs></svg>